<?xml version="1.0" encoding="UTF-8" standalone="no"?>
<svg
   version="1.1"
   width="250px"
   height="50px"
   id="logo"
   xmlns="http://www.w3.org/2000/svg"
   xmlns:svg="http://www.w3.org/2000/svg">
   <path
     fill="#aee8f4"
     d="m 10.167841,13.471488 h 3.15 c 3.9,0 6.6,1.65 6.6,5.19 0,2.61 -1.23,4.2 -3.6,4.95 2.82,0.81 4.29,2.49 4.29,4.8 0,4.41 -2.94,6.21 -7.8,6.21 H 3.2678413 v -2.55 l 2.25,-0.9 v -14.1 l -2.25,-0.9 v -2.55 z m 0,8.64 h 1.74 c 2.19,0 3.36,-0.93 3.36,-2.79 0,-1.56 -1.11,-2.25 -2.55,-2.25 h -2.55 z m 0,8.91 h 2.49 c 2.1,0 3.21,-0.96 3.21,-2.61 0,-2.19 -1.26,-3.15 -3.96,-3.15 h -1.74 z m 16.7853,-17.55 c 0,-1.71 1.23,-2.7 2.58,-2.7 1.56,0 2.52,0.81 2.52,2.7 0,1.77 -1.29,2.73 -2.52,2.73 -1.62,0 -2.58,-0.96 -2.58,-2.73 z m 5.04,18 2.1,0.75 v 2.4 h -9 v -2.4 l 2.4,-0.75 v -9.75 l -2.4,-0.75 v -2.4 l 6.9,-0.15 z m 12.4953,-13.05 0.21,2.07 c 0,0 2.85,-2.31 5.52,-2.31 2.91,0 4.56,2.07 4.56,5.34 v 7.95 l 2.1,0.75 v 2.4 h -8.25 v -2.4 l 1.65,-0.75 v -7.14 c 0,-1.38 -0.78,-2.4 -2.04,-2.4 -1.86,0 -3.21,1.71 -3.21,1.71 v 7.83 l 1.65,0.75 v 2.4 h -8.55 v -2.4 l 2.4,-0.75 v -9.75 l -2.4,-0.75 v -2.4 z m 22.1253,13.5 h 4.44 c 3.81,0 6,1.65 6,4.65 0,3.3 -2.64,5.7 -8.4,5.7 -4.71,0 -7.74,-1.05 -7.74,-4.35 0,-2.58 3.15,-3.6 3.15,-3.6 0,0 -1.8,-0.27 -1.8,-1.98 0,-0.87 1.2,-2.82 1.56,-3.39 -0.72,-0.48 -2.31,-1.77 -2.31,-4.68 0,-4.11 3.09,-6.15 7.2,-6.15 1.74,0 2.97,0.45 3.54,0.72 l 5.16,-0.12 v 2.4 l -2.46,0.42 c 0.06,0.27 0.51,1.08 0.51,2.37 0,4.35 -3.06,6.15 -7.2,6.15 -0.81,0 -1.41,-0.15 -1.53,-0.15 z m 1.95,-10.71 c -1.8,0 -2.55,0.96 -2.55,2.85 0,1.8 0.69,3 2.4,3 1.89,0 2.55,-0.99 2.55,-3 0,-1.89 -0.75,-2.85 -2.4,-2.85 z m 1.29,14.01 h -3.15 c 0,0 -1.44,0.66 -1.44,1.95 0,1.5 1.29,1.8 3.75,1.8 2.7,0 3.84,-0.6 3.84,-2.04 0,-1.35 -0.99,-1.71 -3,-1.71 z m 25.9353,-7.71 h -9.96 c 0.18,2.4 1.56,3.81 3.63,3.81 2.49,0 5.04,-1.41 5.04,-1.41 l 1.29,2.49 c 0,0 -3,2.52 -6.84,2.52 -5.16,0 -7.8,-3 -7.8,-8.1 0,-5.25 2.97,-8.7 8.01,-8.7 4.47,0 6.81,2.76 6.81,7.05 0,1.14 -0.18,2.25 -0.18,2.34 z m -9.9,-2.79 h 5.43 c 0,-1.71 -0.72,-3 -2.46,-3 -1.68,0 -2.73,1.23 -2.97,3 z m 33.630599,9.9 -0.54,-1.95 c 0,0 -2.31,2.25 -4.86,2.25 -2.91,0 -4.68,-1.71 -4.68,-4.71 0,-3.54 2.67,-4.95 7.23,-4.95 h 2.1 v -1.65 c 0,-1.53 -0.81,-2.19 -2.31,-2.19 -1.53,0 -2.64,0.45 -2.64,0.45 l -0.45,1.89 h -2.7 l -0.21,-4.44 c 0,0 3.63,-1.2 6.51,-1.2 4.56,0 6.3,1.59 6.3,5.94 v 7.41 l 2.25,0.54 v 2.4 z m -0.75,-6.81 h -1.71 c -2.34,0 -3.27,0.6 -3.27,1.95 0,1.14 0.63,1.8 1.77,1.8 1.59,0 3.21,-1.74 3.21,-1.74 z m 21.2853,2.97 1.08,2.28 c -1.47,1.08 -3.15,1.86 -5.1,1.86 -3.45,0 -4.44,-2.4 -4.44,-5.85 v -6.9 h -2.79 v -2.91 l 2.79,-0.39 v -4.14 l 4.5,-0.81 v 4.95 h 4.2 v 3.3 h -4.2 v 6.6 c 0,1.92 0.33,2.7 1.59,2.7 0.81,0 1.98,-0.48 2.37,-0.69 z m 13.6506,3.84 v -2.55 l 2.25,-0.9 v -14.1 l -2.25,-0.9 v -2.55 l 9.3,-0.15 v 2.7 l -2.4,0.9 v 4.8 h 7.86 v -4.8 l -2.4,-0.9 v -2.55 l 9.3,-0.15 v 2.7 l -2.25,0.9 v 14.1 l 2.25,0.9 v 2.55 h -9.3 v -2.55 l 2.4,-0.9 v -5.7 h -7.86 v 5.7 l 2.4,0.9 v 2.55 z m 33.9453,-16.5 c 4.86,0 7.56,2.94 7.56,8.1 0,5.4 -3.15,8.7 -8.01,8.7 -4.89,0 -7.65,-2.55 -7.65,-8.25 0,-5.4 3.21,-8.55 8.1,-8.55 z m -0.15,3.6 c -2.19,0 -3.3,1.2 -3.3,4.8 0,3.3 0.96,4.8 3.15,4.8 2.16,0 3.21,-1.35 3.21,-4.95 0,-3.06 -0.9,-4.65 -3.06,-4.65 z m 39.8853,10.5 v 2.4 h -8.13 v -2.4 l 1.59,-0.75 v -7.14 c 0,-1.65 -0.48,-2.46 -1.74,-2.46 -1.95,0 -3.33,1.56 -3.33,1.56 v 8.04 l 1.56,0.75 v 2.4 h -7.62 v -2.4 l 1.56,-0.75 v -7.14 c 0,-1.65 -0.42,-2.46 -1.71,-2.46 -1.95,0 -3.36,1.56 -3.36,1.56 v 8.04 l 1.59,0.75 v 2.4 h -8.4 v -2.4 l 2.31,-0.75 v -9.75 l -2.28,-0.75 v -2.4 l 6.27,-0.15 0.21,2.13 c 0,0 2.61,-2.43 5.25,-2.43 2.13,0 3.45,0.99 4.14,2.58 0.51,-0.51 2.76,-2.58 5.43,-2.58 3.15,0 4.62,2.04 4.62,5.4 v 7.95 z m 18.5253,-4.71 h -9.96 c 0.18,2.4 1.56,3.81 3.63,3.81 2.49,0 5.04,-1.41 5.04,-1.41 l 1.29,2.49 c 0,0 -3,2.52 -6.84,2.52 -5.16,0 -7.8,-3 -7.8,-8.1 0,-5.25 2.97,-8.7 8.01,-8.7 4.47,0 6.81,2.76 6.81,7.05 0,1.14 -0.18,2.25 -0.18,2.34 z m -9.9,-2.79 h 5.43 c 0,-1.71 -0.72,-3 -2.46,-3 -1.68,0 -2.73,1.23 -2.97,3 z"/>
</svg>
